<svg id="Layer_1" data-name="Layer 1" xmlns="http://www.w3.org/2000/svg" width="150" height="31.48" viewBox="0 0 150 31.48" fill="#fff"><path d="M6.76,27.75a6.6,6.6,0,0,0,2.16-.31v-2H5.54V22.91h5.79v6.24a10.11,10.11,0,0,1-4.67,1C2.89,30.16,0,27.65,0,23.36c0-3.5,2.2-6.8,6.18-6.8a6.26,6.26,0,0,1,5.42,2.83L9.75,21.12C8.68,19.57,7.65,19,6.22,19c-2.31,0-3.66,2.17-3.66,4.37A4.14,4.14,0,0,0,6.76,27.75Z"/><path d="M22.92,29.91,19.7,25.15h-2v4.76H15.25V16.81h5.23c2.68,0,4.62,1.46,4.62,4a4,4,0,0,1-2.8,3.89l3.62,5.21ZM20.44,19.32H17.66v3.3h2.66c1.46,0,2.22-.58,2.22-1.79C22.54,19.8,21.8,19.32,20.44,19.32Z"/><path d="M27.43,23.34c0-3.6,2.51-6.78,6.34-6.78s6.31,3.22,6.31,6.82-2.51,6.78-6.31,6.78S27.43,26.93,27.43,23.34Zm10.08,0c0-2.33-1.34-4.41-3.74-4.41S30,21,30,23.34s1.36,4.41,3.77,4.41S37.51,25.71,37.51,23.38Z"/><path d="M42.8,25.09V16.81h2.41v8.3c0,1.8,1.45,2.64,3.32,2.64s3.34-.84,3.34-2.64v-8.3h2.41v8.28c0,3.32-2.39,5.07-5.75,5.07S42.8,28.39,42.8,25.09Z"/><path d="M66.29,29.91l-6-9.25v9.25H57.93V16.81h3.15l6,9.36V16.81h2.4v13.1Z"/><path d="M77.94,29.91H73.09V16.81h4.85c4.61,0,6.76,3,6.76,6.53S82.43,29.91,77.94,29.91Zm-.09-10.57H75.5v8h2.35c2.87,0,4.29-1.75,4.29-4S80.53,19.34,77.85,19.34Z"/><path d="M125.48,25.09V16.81h2.41v8.3c0,1.8,1.46,2.64,3.32,2.64s3.35-.84,3.35-2.64v-8.3H137v8.28c0,3.32-2.39,5.07-5.75,5.07S125.48,28.39,125.48,25.09Z"/><path d="M145.05,25.67h-2.41v4.24h-2.41V16.81h4.82c3,0,4.95,1.85,4.95,4.39S148.17,25.67,145.05,25.67Zm0-6.33h-2.37v3.8H145c1.71,0,2.48-.75,2.48-1.9S146.6,19.34,145,19.34Z"/><path d="M118.12,13.24h-1.36c.2-1.24.33-2.32.41-3.15a1.65,1.65,0,0,0-1.66-1.82H90.89a1.68,1.68,0,0,0-1.66,1.82c.54,5.45,3,21.39,14,21.39,6,0,9.41-4.75,11.42-9.95h1.85A2.69,2.69,0,0,0,119,20.29a6.9,6.9,0,0,0,1.66-4.18C120.61,14.55,119.74,13.24,118.12,13.24Zm-9.3,14.43a8.41,8.41,0,0,1-11.23,0,16.14,16.14,0,0,1-3.75-5.49A41.7,41.7,0,0,1,91,10.56.55.55,0,0,1,91.5,10h23.24a.69.69,0,0,1,.69.77,41.66,41.66,0,0,1-2.86,11.48A16.39,16.39,0,0,1,108.82,27.67Zm8.62-8a1.53,1.53,0,0,1-1,.24l-1.34,0s1.18-4.06,1.4-5h1.59c.52,0,.76.64.81,1.35A6.19,6.19,0,0,1,117.44,19.63Z"/><path d="M100.72,4.54a.34.34,0,0,0,0,.14c0,.11,0,.21,0,.31s.08.36.12.52c.11.31.21.56.29.73s.09.14.11.18a.22.22,0,0,0,0,.07.21.21,0,0,0,.21.1.21.21,0,0,0,.16-.25v0s0-.1,0-.27-.06-.41-.1-.7a3.24,3.24,0,0,1,0-.46V4.41a1.15,1.15,0,0,1,.15-.35c.08-.12.21-.25.35-.45a2.87,2.87,0,0,0,.21-.36c0-.06,0-.12.06-.2a.86.86,0,0,0,0-.21.87.87,0,0,1,0-.1V2.55h0V2.49a1.55,1.55,0,0,0,0-.31,6.86,6.86,0,0,0-.23-1.06c-.08-.31-.18-.54-.24-.73s-.11-.27-.11-.27h0a.22.22,0,0,0-.21-.12.22.22,0,0,0-.18.23s0,.1,0,.27,0,.43.08.72.06.65.09,1v.27s0,.2,0,.22l-.06.17a.87.87,0,0,1-.1.19c-.11.12-.25.29-.4.49a1.55,1.55,0,0,0-.22.77V4.5Z"/><path d="M102.37,4.5v0a.34.34,0,0,0,0,.14c0,.11,0,.21,0,.31s.08.36.12.52a6.11,6.11,0,0,0,.29.73l.1.18,0,.07a.2.2,0,0,0,.2.1.21.21,0,0,0,.17-.25v0s0-.1,0-.27-.06-.41-.11-.7a3.28,3.28,0,0,1,0-.46V4.41a.81.81,0,0,1,.15-.35c.08-.12.2-.25.35-.45s.14-.21.21-.36,0-.12.06-.2a.86.86,0,0,0,0-.21.87.87,0,0,1,0-.1V2.55h0V2.49a1.55,1.55,0,0,0,0-.31,8.27,8.27,0,0,0-.23-1.06,6.67,6.67,0,0,0-.25-.73l-.1-.27h0a.22.22,0,0,0-.21-.12.22.22,0,0,0-.18.23s0,.1,0,.27,0,.43.08.72.06.65.08,1v.27s0,.2,0,.22l-.06.17a.87.87,0,0,1-.1.19c-.11.12-.25.29-.4.49a1.56,1.56,0,0,0-.23.77v.11S102.37,4.48,102.37,4.5Z"/><path d="M104,4.5v0a.34.34,0,0,0,0,.14c0,.11,0,.21,0,.31l.13.52a6.11,6.11,0,0,0,.29.73l.1.18a.22.22,0,0,0,0,.07.23.23,0,0,0,.21.1.22.22,0,0,0,.17-.25v0s0-.1,0-.27-.07-.41-.11-.7a3.28,3.28,0,0,1,0-.46V4.41a.81.81,0,0,1,.15-.35c.08-.12.2-.25.35-.45a2.9,2.9,0,0,0,.2-.36.93.93,0,0,0,.07-.2.86.86,0,0,0,0-.21.87.87,0,0,1,0-.1V2.55h0V2.49a1.55,1.55,0,0,0,0-.31,8.27,8.27,0,0,0-.23-1.06c-.08-.31-.19-.54-.25-.73l-.1-.27h0a.24.24,0,0,0-.21-.12.23.23,0,0,0-.19.23l0,.27c0,.16,0,.43.08.72s.06.65.08,1v.27s0,.2,0,.22l-.06.17a.62.62,0,0,1-.11.19c-.1.12-.24.29-.39.49a1.56,1.56,0,0,0-.23.77v.11S104,4.48,104,4.5Z"/><path d="M111.1,18.22H95.31a.83.83,0,0,0-.79,1.1l.5,1.36c2,5,4.68,7.48,8.18,7.48s6.18-2.44,8.19-7.48c.19-.45.35-.91.5-1.36A.83.83,0,0,0,111.1,18.22Z"/></svg>